<?xml version="1.0" encoding="UTF-8"?>
<svg version="1.1" xmlns="http://www.w3.org/2000/svg" width="32" height="32" viewBox="0 0 32 32">
<path d="M0 0 C1.98 0 3.96 0 6 0 C6.33 0.66 6.66 1.32 7 2 C7.99 1.34 8.98 0.68 10 0 C15.34545455 -0.32727273 15.34545455 -0.32727273 18 1 C18 1.66 18 2.32 18 3 C18.70125 2.505 19.4025 2.01 20.125 1.5 C23.43925206 -0.22917499 25.31277109 -0.4809429 29 0 C30.66015625 1.12109375 30.66015625 1.12109375 32 3 C32.36328125 5.99609375 32.36328125 5.99609375 32.3125 9.4375 C32.30863281 10.57058594 32.30476563 11.70367187 32.30078125 12.87109375 C32.01771236 15.81574545 31.53360955 17.51323073 30 20 C27.69 20 25.38 20 23 20 C24.32 15.38 25.64 10.76 27 6 C23.93901805 9.06098195 23.17354587 10.69822763 21.8125 14.6875 C21.46832031 15.68136719 21.12414062 16.67523437 20.76953125 17.69921875 C20.38861328 18.83810547 20.38861328 18.83810547 20 20 C16.7 20 13.4 20 10 20 C11.32 15.38 12.64 10.76 14 6 C10.93901805 9.06098195 10.17354587 10.69822763 8.8125 14.6875 C8.46832031 15.68136719 8.12414063 16.67523437 7.76953125 17.69921875 C7.51558594 18.45847656 7.26164063 19.21773437 7 20 C4.69 20 2.38 20 0 20 C0 13.4 0 6.8 0 0 Z " fill="#FF4D17" transform="translate(0,6)"/>
</svg>
